<svg xmlns="http://www.w3.org/2000/svg" width="400" height="300" viewBox="0 0 400 300">
  <defs>
    <linearGradient id="derivatives-gradient" x1="0%" y1="0%" x2="100%" y2="100%">
      <stop offset="0%" stop-color="#0066ff" />
      <stop offset="100%" stop-color="#00ccff" />
    </linearGradient>
  </defs>
  
  <!-- Grid background -->
  <g stroke="#e0eaff" stroke-width="1">
    <g id="grid-horizontal">
      <line x1="0" y1="50" x2="400" y2="50" />
      <line x1="0" y1="100" x2="400" y2="100" />
      <line x1="0" y1="150" x2="400" y2="150" />
      <line x1="0" y1="200" x2="400" y2="200" />
      <line x1="0" y1="250" x2="400" y2="250" />
    </g>
    <g id="grid-vertical">
      <line x1="50" y1="0" x2="50" y2="300" />
      <line x1="100" y1="0" x2="100" y2="300" />
      <line x1="150" y1="0" x2="150" y2="300" />
      <line x1="200" y1="0" x2="200" y2="300" />
      <line x1="250" y1="0" x2="250" y2="300" />
      <line x1="300" y1="0" x2="300" y2="300" />
      <line x1="350" y1="0" x2="350" y2="300" />
    </g>
  </g>
  
  <!-- Coordinate system -->
  <g stroke="#333333" stroke-width="2">
    <line x1="50" y1="250" x2="350" y2="250" /> <!-- x-axis -->
    <line x1="50" y1="50" x2="50" y2="250" /> <!-- y-axis -->
    
    <!-- Axis arrows -->
    <polygon points="350,250 340,245 340,255" fill="#333333" />
    <polygon points="50,50 45,60 55,60" fill="#333333" />
    
    <!-- Axis labels -->
    <text x="345" y="270" font-family="Arial" font-size="14" fill="#333333">x</text>
    <text x="35" y="55" font-family="Arial" font-size="14" fill="#333333">y</text>
  </g>
  
  <!-- Original function curve: f(x) = x^2 -->
  <path d="M 50,250 
           Q 100,240 150,210 
           Q 200,160 250,90 
           Q 300,0 350,0" 
        stroke="#0066ff" stroke-width="3" fill="none" />
  <text x="360" y="20" font-family="Arial" font-size="14" fill="#0066ff">f(x)</text>
  
  <!-- Derivative function curve: f'(x) = 2x (linear) -->
  <path d="M 50,250 
           L 150,200 
           L 250,150 
           L 350,100" 
        stroke="#ff6600" stroke-width="3" fill="none" stroke-dasharray="5,3" />
  <text x="360" y="100" font-family="Arial" font-size="14" fill="#ff6600">f'(x)</text>
  
  <!-- Point and tangent line demonstration -->
  <g>
    <circle cx="200" cy="160" r="5" fill="url(#derivatives-gradient)" />
    <line x1="150" y1="210" x2="250" y2="110" stroke="#00cc66" stroke-width="2" />
    <text x="165" y="140" font-family="Arial" font-size="12" fill="#00cc66">Tangent line</text>
  </g>
  
  <!-- Derivative notation -->
  <g transform="translate(100, 80)">
    <text font-family="Arial" font-size="18" fill="url(#derivatives-gradient)">
      <tspan x="0" dy="0">df</tspan>
      <tspan x="0" dy="20">──</tspan>
      <tspan x="0" dy="20">dx</tspan>
    </text>
  </g>
  
  <g transform="translate(300, 200)">
    <text font-family="Arial" font-size="18" fill="url(#derivatives-gradient)">
      <tspan x="0" dy="0">f'(x) = lim</tspan>
      <tspan x="70" dy="-5" font-size="12">h→0</tspan>
      <tspan x="0" dy="25">f(x+h) - f(x)</tspan>
      <tspan x="0" dy="20">───────────</tspan>
      <tspan x="40" dy="20">h</tspan>
    </text>
  </g>
  
  <!-- Title -->
  <text x="200" y="290" font-family="Arial" font-size="18" font-weight="bold" fill="url(#derivatives-gradient)" text-anchor="middle">Derivatives</text>
</svg>
