<svg xmlns="http://www.w3.org/2000/svg" width="400" height="300" viewBox="0 0 400 300">
  <defs>
    <linearGradient id="limits-gradient" x1="0%" y1="0%" x2="100%" y2="100%">
      <stop offset="0%" stop-color="#0066ff" />
      <stop offset="100%" stop-color="#00ccff" />
    </linearGradient>
  </defs>
  
  <!-- Grid background -->
  <g stroke="#e0eaff" stroke-width="1">
    <g id="grid-horizontal">
      <line x1="0" y1="50" x2="400" y2="50" />
      <line x1="0" y1="100" x2="400" y2="100" />
      <line x1="0" y1="150" x2="400" y2="150" />
      <line x1="0" y1="200" x2="400" y2="200" />
      <line x1="0" y1="250" x2="400" y2="250" />
    </g>
    <g id="grid-vertical">
      <line x1="50" y1="0" x2="50" y2="300" />
      <line x1="100" y1="0" x2="100" y2="300" />
      <line x1="150" y1="0" x2="150" y2="300" />
      <line x1="200" y1="0" x2="200" y2="300" />
      <line x1="250" y1="0" x2="250" y2="300" />
      <line x1="300" y1="0" x2="300" y2="300" />
      <line x1="350" y1="0" x2="350" y2="300" />
    </g>
  </g>
  
  <!-- Coordinate system -->
  <g stroke="#333333" stroke-width="2">
    <line x1="50" y1="150" x2="350" y2="150" /> <!-- x-axis -->
    <line x1="200" y1="50" x2="200" y2="250" /> <!-- y-axis -->
    
    <!-- Axis arrows -->
    <polygon points="350,150 340,145 340,155" fill="#333333" />
    <polygon points="200,50 195,60 205,60" fill="#333333" />
    
    <!-- Axis labels -->
    <text x="345" y="140" font-family="Arial" font-size="14" fill="#333333">x</text>
    <text x="210" y="55" font-family="Arial" font-size="14" fill="#333333">y</text>
    
    <!-- Point of interest (x = a) -->
    <line x1="250" y1="145" x2="250" y2="155" stroke="#333333" stroke-width="2" />
    <text x="250" y="170" font-family="Arial" font-size="14" fill="#333333" text-anchor="middle">a</text>
  </g>
  
  <!-- Limit visualization -->
  <g>
    <!-- Function with discontinuity -->
    <path d="M 50,200 
             C 80,180 120,160 160,140 
             C 180,130 190,120 200,110
             L 200,110" 
          stroke="#0066ff" stroke-width="3" fill="none" />
          
    <path d="M 200,110 
             C 210,100 220,90 250,80
             C 290,70 320,70 350,80" 
          stroke="#0066ff" stroke-width="3" fill="none" />
    
    <!-- Discontinuity point (open circle) -->
    <circle cx="200" cy="110" r="5" fill="white" stroke="#0066ff" stroke-width="3" />
    
    <!-- Function with removable discontinuity -->
    <path d="M 50,180 
             C 100,160 150,150 190,145
             L 210,145
             C 250,145 300,160 350,180" 
          stroke="#ff6600" stroke-width="3" fill="none" stroke-dasharray="5,3" />
    
    <!-- Hole at discontinuity (open circle) -->
    <circle cx="200" cy="145" r="5" fill="white" stroke="#ff6600" stroke-width="3" />
    <!-- Filled circle where function would be defined -->
    <circle cx="200" cy="145" r="3" fill="#ff6600" />
  </g>
  
  <!-- Epsilon-delta bands -->
  <g stroke="url(#limits-gradient)" stroke-width="1" stroke-dasharray="3,2" opacity="0.6">
    <!-- delta band -->
    <line x1="240" y1="50" x2="240" y2="250" />
    <line x1="260" y1="50" x2="260" y2="250" />
    
    <!-- epsilon band -->
    <line x1="50" y1="70" x2="350" y2="70" />
    <line x1="50" y1="90" x2="350" y2="90" />
    
    <!-- Labels -->
    <text x="250" y="265" font-family="Arial" font-size="12" fill="#333333" text-anchor="middle">δ</text>
    <text x="365" y="80" font-family="Arial" font-size="12" fill="#333333">ε</text>
  </g>
  
  <!-- Limit notation -->
  <g transform="translate(80, 60)">
    <text font-family="Arial" font-size="16" fill="url(#limits-gradient)">
      <tspan x="0" dy="0">lim f(x) = L</tspan>
      <tspan x="20" dy="-10" font-size="12">x→a</tspan>
    </text>
  </g>
  
  <!-- One-sided limits -->
  <g transform="translate(40, 220)">
    <text font-family="Arial" font-size="14" fill="#0066ff">
      <tspan x="0" dy="0">lim f(x) ≠ lim f(x)</tspan>
      <tspan x="15" dy="-5" font-size="10">x→a⁻</tspan>
      <tspan x="85" dy="-5" font-size="10">x→a⁺</tspan>
    </text>
  </g>
  
  <!-- Continuity condition -->
  <g transform="translate(240, 220)">
    <text font-family="Arial" font-size="14" fill="#ff6600">
      <tspan x="0" dy="0">lim f(x) = f(a)</tspan>
      <tspan x="20" dy="-5" font-size="10">x→a</tspan>
    </text>
  </g>
  
  <!-- Title -->
  <text x="200" y="30" font-family="Arial" font-size="18" font-weight="bold" fill="url(#limits-gradient)" text-anchor="middle">Limits and Continuity</text>
</svg>
